<mxfile host="Electron" modified="2023-04-09T18:59:10.244Z" agent="Mozilla/5.0 (Macintosh; Intel Mac OS X 10_15_7) AppleWebKit/537.36 (KHTML, like Gecko) draw.io/21.1.2 Chrome/106.0.5249.199 Electron/21.4.3 Safari/537.36" etag="maN-0Sktgad9QmW-uMmM" version="21.1.2" type="device">
  <diagram name="Page-1" id="Wnn-GPTbWcC1DmBYem_U">
    <mxGraphModel dx="1854" dy="613" grid="1" gridSize="10" guides="1" tooltips="1" connect="1" arrows="1" fold="1" page="1" pageScale="1" pageWidth="850" pageHeight="1100" math="0" shadow="0">
      <root>
        <mxCell id="0" />
        <mxCell id="M03fJbB24BSDBl7dyyik-36" value="Background" style="" parent="0" />
        <mxCell id="M03fJbB24BSDBl7dyyik-21" value="AWS Account" style="points=[[0,0],[0.25,0],[0.5,0],[0.75,0],[1,0],[1,0.25],[1,0.5],[1,0.75],[1,1],[0.75,1],[0.5,1],[0.25,1],[0,1],[0,0.75],[0,0.5],[0,0.25]];outlineConnect=0;html=1;whiteSpace=wrap;fontSize=12;fontStyle=1;container=1;pointerEvents=0;collapsible=0;recursiveResize=0;shape=mxgraph.aws4.group;grIcon=mxgraph.aws4.group_account;verticalAlign=top;align=left;spacingLeft=30;dashed=0;" vertex="1" parent="M03fJbB24BSDBl7dyyik-36">
          <mxGeometry x="100" y="160" width="590" height="390" as="geometry" />
        </mxCell>
        <mxCell id="M03fJbB24BSDBl7dyyik-9" value="Amazon Keyspaces" style="sketch=0;points=[[0,0,0],[0.25,0,0],[0.5,0,0],[0.75,0,0],[1,0,0],[0,1,0],[0.25,1,0],[0.5,1,0],[0.75,1,0],[1,1,0],[0,0.25,0],[0,0.5,0],[0,0.75,0],[1,0.25,0],[1,0.5,0],[1,0.75,0]];outlineConnect=0;fontColor=#232F3E;gradientColor=#4D72F3;gradientDirection=north;fillColor=#3334B9;strokeColor=#ffffff;dashed=0;verticalLabelPosition=bottom;verticalAlign=top;align=center;html=1;fontSize=12;fontStyle=0;aspect=fixed;shape=mxgraph.aws4.resourceIcon;resIcon=mxgraph.aws4.keyspaces;" vertex="1" parent="M03fJbB24BSDBl7dyyik-21">
          <mxGeometry x="270" y="310" width="47" height="47" as="geometry" />
        </mxCell>
        <mxCell id="M03fJbB24BSDBl7dyyik-7" value="CloudWatch Logs" style="sketch=0;outlineConnect=0;fontColor=#232F3E;gradientColor=none;fillColor=#B0084D;strokeColor=none;dashed=0;verticalLabelPosition=bottom;verticalAlign=top;align=center;html=1;fontSize=12;fontStyle=0;aspect=fixed;pointerEvents=1;shape=mxgraph.aws4.logs;" vertex="1" parent="M03fJbB24BSDBl7dyyik-21">
          <mxGeometry x="409" y="310" width="62.53" height="46.5" as="geometry" />
        </mxCell>
        <mxCell id="M03fJbB24BSDBl7dyyik-31" value="IAM&lt;br&gt;Authentication" style="outlineConnect=0;dashed=0;verticalLabelPosition=bottom;verticalAlign=top;align=center;html=1;shape=mxgraph.aws3.iam;fillColor=#759C3E;gradientColor=none;fontStyle=2;labelPosition=center;" vertex="1" parent="M03fJbB24BSDBl7dyyik-21">
          <mxGeometry x="540.0000000000001" y="143.5" width="17.11" height="33" as="geometry" />
        </mxCell>
        <mxCell id="M03fJbB24BSDBl7dyyik-54" style="edgeStyle=orthogonalEdgeStyle;rounded=0;orthogonalLoop=1;jettySize=auto;html=1;dashed=1;strokeColor=#CC6600;" edge="1" parent="M03fJbB24BSDBl7dyyik-21" source="M03fJbB24BSDBl7dyyik-53" target="M03fJbB24BSDBl7dyyik-9">
          <mxGeometry relative="1" as="geometry" />
        </mxCell>
        <mxCell id="M03fJbB24BSDBl7dyyik-53" value="&lt;b&gt;Optional&lt;/b&gt;" style="text;html=1;strokeColor=#d6b656;fillColor=#fff2cc;align=center;verticalAlign=middle;whiteSpace=wrap;rounded=0;" vertex="1" parent="M03fJbB24BSDBl7dyyik-21">
          <mxGeometry x="105" y="318.5" width="60" height="30" as="geometry" />
        </mxCell>
        <mxCell id="M03fJbB24BSDBl7dyyik-19" value="VPC" style="points=[[0,0],[0.25,0],[0.5,0],[0.75,0],[1,0],[1,0.25],[1,0.5],[1,0.75],[1,1],[0.75,1],[0.5,1],[0.25,1],[0,1],[0,0.75],[0,0.5],[0,0.25]];outlineConnect=0;html=1;whiteSpace=wrap;fontSize=12;fontStyle=0;container=1;pointerEvents=0;collapsible=0;recursiveResize=0;shape=mxgraph.aws4.group;grIcon=mxgraph.aws4.group_vpc;verticalAlign=top;align=left;spacingLeft=30;dashed=0;fillColor=#f5f5f5;strokeColor=#666666;fontColor=#333333;" vertex="1" parent="M03fJbB24BSDBl7dyyik-36">
          <mxGeometry x="110" y="190" width="500" height="260" as="geometry" />
        </mxCell>
        <mxCell id="M03fJbB24BSDBl7dyyik-17" value="Public subnets" style="points=[[0,0],[0.25,0],[0.5,0],[0.75,0],[1,0],[1,0.25],[1,0.5],[1,0.75],[1,1],[0.75,1],[0.5,1],[0.25,1],[0,1],[0,0.75],[0,0.5],[0,0.25]];outlineConnect=0;gradientColor=none;html=1;whiteSpace=wrap;fontSize=12;fontStyle=0;container=1;pointerEvents=0;collapsible=0;recursiveResize=0;shape=mxgraph.aws4.group;grIcon=mxgraph.aws4.group_security_group;grStroke=0;strokeColor=#248814;fillColor=#E9F3E6;verticalAlign=top;align=left;spacingLeft=30;fontColor=#248814;dashed=0;strokeWidth=2;perimeterSpacing=1;" vertex="1" parent="M03fJbB24BSDBl7dyyik-36">
          <mxGeometry x="140" y="230" width="190" height="170" as="geometry" />
        </mxCell>
        <mxCell id="M03fJbB24BSDBl7dyyik-16" value="Private subnets" style="points=[[0,0],[0.25,0],[0.5,0],[0.75,0],[1,0],[1,0.25],[1,0.5],[1,0.75],[1,1],[0.75,1],[0.5,1],[0.25,1],[0,1],[0,0.75],[0,0.5],[0,0.25]];outlineConnect=0;gradientColor=none;html=1;whiteSpace=wrap;fontSize=12;fontStyle=0;container=1;pointerEvents=0;collapsible=0;recursiveResize=0;shape=mxgraph.aws4.group;grIcon=mxgraph.aws4.group_security_group;grStroke=0;strokeColor=#147EBA;fillColor=#E6F2F8;verticalAlign=top;align=left;spacingLeft=30;fontColor=#147EBA;dashed=0;strokeWidth=1;perimeterSpacing=9;labelBorderColor=none;labelBackgroundColor=none;" vertex="1" parent="M03fJbB24BSDBl7dyyik-36">
          <mxGeometry x="360" y="230" width="190" height="170" as="geometry" />
        </mxCell>
        <mxCell id="M03fJbB24BSDBl7dyyik-57" style="edgeStyle=orthogonalEdgeStyle;rounded=0;orthogonalLoop=1;jettySize=auto;html=1;dashed=1;strokeColor=#CC6600;entryX=0.5;entryY=1;entryDx=0;entryDy=0;entryPerimeter=0;exitX=0.5;exitY=0;exitDx=0;exitDy=0;" edge="1" parent="M03fJbB24BSDBl7dyyik-36" source="M03fJbB24BSDBl7dyyik-53" target="M03fJbB24BSDBl7dyyik-6">
          <mxGeometry relative="1" as="geometry">
            <mxPoint x="270" y="504" as="sourcePoint" />
            <mxPoint x="380" y="504" as="targetPoint" />
          </mxGeometry>
        </mxCell>
        <mxCell id="1" value="Foreground" style="" parent="0" />
        <mxCell id="M03fJbB24BSDBl7dyyik-12" value="ECS Fargate Task" style="rounded=1;whiteSpace=wrap;html=1;labelPosition=center;verticalLabelPosition=middle;align=center;verticalAlign=top;fontStyle=0;labelBackgroundColor=none;" vertex="1" parent="1">
          <mxGeometry x="390" y="260" width="130" height="120" as="geometry" />
        </mxCell>
        <mxCell id="M03fJbB24BSDBl7dyyik-8" value="stdout &amp;amp; stderr" style="edgeStyle=orthogonalEdgeStyle;rounded=0;orthogonalLoop=1;jettySize=auto;html=1;fontStyle=2;dashed=1;labelBackgroundColor=#f5f5f5;" edge="1" parent="1" source="M03fJbB24BSDBl7dyyik-4" target="M03fJbB24BSDBl7dyyik-7">
          <mxGeometry x="0.7192" relative="1" as="geometry">
            <mxPoint x="480" y="330" as="sourcePoint" />
            <Array as="points">
              <mxPoint x="455" y="420" />
              <mxPoint x="530" y="420" />
            </Array>
            <mxPoint as="offset" />
          </mxGeometry>
        </mxCell>
        <mxCell id="M03fJbB24BSDBl7dyyik-10" value="Data persistence" style="edgeStyle=orthogonalEdgeStyle;rounded=0;orthogonalLoop=1;jettySize=auto;html=1;fontStyle=2;labelBackgroundColor=#f5f5f5;" edge="1" parent="1" source="M03fJbB24BSDBl7dyyik-4" target="M03fJbB24BSDBl7dyyik-9">
          <mxGeometry x="0.7001" relative="1" as="geometry">
            <Array as="points">
              <mxPoint x="455" y="420" />
              <mxPoint x="394" y="420" />
            </Array>
            <mxPoint as="offset" />
          </mxGeometry>
        </mxCell>
        <mxCell id="M03fJbB24BSDBl7dyyik-4" value="Quine Container&lt;br&gt;8080:8080" style="sketch=0;outlineConnect=0;fontColor=#232F3E;gradientColor=none;fillColor=#D45B07;strokeColor=none;dashed=0;verticalLabelPosition=bottom;verticalAlign=top;align=center;html=1;fontSize=12;fontStyle=0;aspect=fixed;pointerEvents=1;shape=mxgraph.aws4.container_1;labelBackgroundColor=default;" vertex="1" parent="1">
          <mxGeometry x="431" y="300" width="48" height="31" as="geometry" />
        </mxCell>
        <mxCell id="M03fJbB24BSDBl7dyyik-14" style="edgeStyle=orthogonalEdgeStyle;rounded=0;orthogonalLoop=1;jettySize=auto;html=1;exitX=1;exitY=0.5;exitDx=0;exitDy=0;exitPerimeter=0;" edge="1" parent="1" source="M03fJbB24BSDBl7dyyik-6" target="M03fJbB24BSDBl7dyyik-4">
          <mxGeometry relative="1" as="geometry">
            <mxPoint x="278" y="316" as="sourcePoint" />
          </mxGeometry>
        </mxCell>
        <mxCell id="M03fJbB24BSDBl7dyyik-25" style="edgeStyle=orthogonalEdgeStyle;rounded=0;orthogonalLoop=1;jettySize=auto;html=1;" edge="1" parent="1" source="M03fJbB24BSDBl7dyyik-24" target="M03fJbB24BSDBl7dyyik-6">
          <mxGeometry relative="1" as="geometry" />
        </mxCell>
        <mxCell id="M03fJbB24BSDBl7dyyik-24" value="Public internet" style="image;aspect=fixed;perimeter=ellipsePerimeter;html=1;align=center;shadow=0;dashed=0;spacingTop=3;image=img/lib/active_directory/internet_globe.svg;fontStyle=0" vertex="1" parent="1">
          <mxGeometry x="3" y="290" width="50" height="50" as="geometry" />
        </mxCell>
        <mxCell id="M03fJbB24BSDBl7dyyik-29" value="&lt;span&gt;Amazon ECS Exec&lt;/span&gt;" style="image;aspect=fixed;html=1;points=[];align=center;fontSize=12;image=img/lib/azure2/preview/Azure_Cloud_Shell.svg;fontStyle=0" vertex="1" parent="1">
          <mxGeometry x="750" y="303.5" width="42.5" height="30" as="geometry" />
        </mxCell>
        <mxCell id="M03fJbB24BSDBl7dyyik-6" value="Load Balancer&lt;br&gt;80:8080" style="outlineConnect=0;dashed=0;verticalLabelPosition=bottom;verticalAlign=top;align=center;html=1;shape=mxgraph.aws3.application_load_balancer;fillColor=#F58536;gradientColor=none;" vertex="1" parent="1">
          <mxGeometry x="215" y="294.87" width="40" height="40.25" as="geometry" />
        </mxCell>
        <mxCell id="M03fJbB24BSDBl7dyyik-47" value="" style="edgeStyle=orthogonalEdgeStyle;rounded=0;orthogonalLoop=1;jettySize=auto;html=1;dashed=1;entryX=1;entryY=0.5;entryDx=0;entryDy=0;" edge="1" parent="1" source="M03fJbB24BSDBl7dyyik-29" target="M03fJbB24BSDBl7dyyik-31">
          <mxGeometry x="-0.4976" relative="1" as="geometry">
            <mxPoint x="720" y="320" as="sourcePoint" />
            <mxPoint x="520" y="320" as="targetPoint" />
            <Array as="points">
              <mxPoint x="660" y="320" />
              <mxPoint x="660" y="320" />
            </Array>
            <mxPoint as="offset" />
          </mxGeometry>
        </mxCell>
        <mxCell id="M03fJbB24BSDBl7dyyik-30" value="" style="edgeStyle=orthogonalEdgeStyle;rounded=0;orthogonalLoop=1;jettySize=auto;html=1;dashed=1;entryX=1;entryY=0.5;entryDx=0;entryDy=0;" edge="1" parent="1" source="M03fJbB24BSDBl7dyyik-31" target="M03fJbB24BSDBl7dyyik-12">
          <mxGeometry x="-0.4647" y="-50" relative="1" as="geometry">
            <mxPoint x="430" y="300" as="targetPoint" />
            <Array as="points">
              <mxPoint x="610" y="320" />
            </Array>
            <mxPoint x="50" y="50" as="offset" />
          </mxGeometry>
        </mxCell>
        <mxCell id="M03fJbB24BSDBl7dyyik-52" value="remote shell" style="edgeLabel;html=1;align=center;verticalAlign=middle;resizable=0;points=[];" vertex="1" connectable="0" parent="M03fJbB24BSDBl7dyyik-30">
          <mxGeometry x="-0.0139" relative="1" as="geometry">
            <mxPoint x="-9" as="offset" />
          </mxGeometry>
        </mxCell>
      </root>
    </mxGraphModel>
  </diagram>
</mxfile>
